<svg xmlns="http://www.w3.org/2000/svg"  viewBox="0 0 333333 333333" shape-rendering="geometricPrecision" text-rendering="geometricPrecision" image-rendering="optimizeQuality" fill-rule="evenodd" clip-rule="evenodd"><defs><linearGradient id="a" gradientUnits="userSpaceOnUse" x1="278113" y1="-12693.3" x2="55219.7" y2="346026"><stop offset="0" stop-color="#5dd069"/><stop offset="1" stop-color="#2bb641"/></linearGradient></defs><path d="M166667 0c92048 0 166667 74619 166667 166667s-74619 166667-166667 166667S0 258715 0 166667 74619 0 166667 0zm63085 107282c-15665-15699-36503-24333-58696-24333-45718-1-82928 37213-82928 82964 0 14614 3828 28909 11081 41469l-11776 43001 43984-11543c12130 6608 25776 10109 39627 10109h33c45720 0 82963-37213 82963-82963 0-22175-8634-43001-24300-58694l12-12zm-58672 127669c-12391 0-24528-3339-35117-9620l-2525-1507-26100 6835 6970-25441-1633-2613c-6939-10958-10561-23642-10561-36687 0-38029 30935-68976 69003-68976 18407 0 35750 7198 48759 20206 13015 13049 20173 30351 20173 48790-31 38056-30965 69003-68975 69003l6 10zm37804-51665c-2061-1049-12265-6048-14160-6740-1894-691-3274-1049-4679 1048-1372 2060-5359 6740-6574 8139-1215 1375-2417 1571-4476 522-2061-1049-8767-3235-16677-10300-6153-5491-10326-12293-11539-14353-1214-2060-136-3204 920-4215 953-923 2063-2416 3108-3631 1049-1214 1375-2063 2063-3465 691-1375 354-2590-167-3632-522-1045-4679-11249-6373-15407-1664-4062-3401-3496-4677-3566-1214-62-2589-62-3958-62-1368 0-3631 520-5525 2585-1894 2061-7261 7098-7261 17299 0 10205 7422 20047 8464 21453 1048 1371 14620 22332 35412 31301 4941 2124 8800 3400 11807 4387 4972 1568 9482 1342 13049 815 3987-587 12265-5006 14002-9848 1735-4845 1735-8990 1215-9847-492-923-1864-1433-3957-2494l-15 13h-1z" fill="url(#a)"/></svg>